<mxfile host="65bd71144e">
    <diagram id="YfLQU_7pIsObFUvdrNqj" name="Page-1">
        <mxGraphModel dx="872" dy="790" grid="1" gridSize="10" guides="1" tooltips="1" connect="1" arrows="1" fold="1" page="1" pageScale="1" pageWidth="827" pageHeight="1169" math="0" shadow="0">
            <root>
                <mxCell id="0"/>
                <mxCell id="1" parent="0"/>
                <mxCell id="67" style="edgeStyle=none;html=1;exitX=0.75;exitY=1;exitDx=0;exitDy=0;entryX=0.5;entryY=0;entryDx=0;entryDy=0;fillColor=#e3c800;strokeColor=#B09500;strokeWidth=7;" edge="1" parent="1" source="42" target="52">
                    <mxGeometry relative="1" as="geometry">
                        <mxPoint x="1017.5" y="360" as="sourcePoint"/>
                        <mxPoint x="950" y="520" as="targetPoint"/>
                    </mxGeometry>
                </mxCell>
                <mxCell id="66" style="edgeStyle=none;html=1;exitX=0.75;exitY=1;exitDx=0;exitDy=0;fillColor=#e3c800;strokeColor=#B09500;strokeWidth=7;entryX=0.5;entryY=0;entryDx=0;entryDy=0;" edge="1" parent="1" source="39" target="52">
                    <mxGeometry relative="1" as="geometry">
                        <mxPoint x="1060" y="250" as="sourcePoint"/>
                        <mxPoint x="940" y="520" as="targetPoint"/>
                    </mxGeometry>
                </mxCell>
                <mxCell id="65" style="edgeStyle=none;html=1;exitX=0.5;exitY=1;exitDx=0;exitDy=0;entryX=0.5;entryY=0;entryDx=0;entryDy=0;fillColor=#e3c800;strokeColor=#B09500;strokeWidth=7;" edge="1" parent="1" source="30" target="52">
                    <mxGeometry relative="1" as="geometry">
                        <mxPoint x="720" y="370" as="sourcePoint"/>
                        <mxPoint x="890" y="330" as="targetPoint"/>
                    </mxGeometry>
                </mxCell>
                <mxCell id="24" style="edgeStyle=none;html=1;exitX=1;exitY=0.5;exitDx=0;exitDy=0;entryX=0;entryY=0.5;entryDx=0;entryDy=0;fillColor=#e3c800;strokeColor=#B09500;strokeWidth=7;" parent="1" source="26" target="30" edge="1">
                    <mxGeometry relative="1" as="geometry"/>
                </mxCell>
                <mxCell id="25" style="edgeStyle=none;html=1;exitX=0.5;exitY=1;exitDx=0;exitDy=0;entryX=0.75;entryY=0;entryDx=0;entryDy=0;fillColor=#60a917;strokeColor=#2D7600;strokeWidth=7;" parent="1" source="26" target="34" edge="1">
                    <mxGeometry relative="1" as="geometry"/>
                </mxCell>
                <mxCell id="26" value="Stand" style="rounded=1;whiteSpace=wrap;html=1;fontSize=24;fillColor=#1ba1e2;fontColor=#ffffff;strokeColor=#006EAF;" parent="1" vertex="1">
                    <mxGeometry x="710" y="210" width="120" height="60" as="geometry"/>
                </mxCell>
                <mxCell id="32" style="edgeStyle=none;html=1;exitX=0.5;exitY=0;exitDx=0;exitDy=0;entryX=0.25;entryY=1;entryDx=0;entryDy=0;fillColor=#60a917;strokeColor=#2D7600;strokeWidth=7;" parent="1" source="34" target="26" edge="1">
                    <mxGeometry relative="1" as="geometry"/>
                </mxCell>
                <mxCell id="34" value="Moving" style="rounded=1;whiteSpace=wrap;html=1;fontSize=24;fillColor=#1ba1e2;fontColor=#ffffff;strokeColor=#006EAF;" parent="1" vertex="1">
                    <mxGeometry x="590" y="330" width="120" height="60" as="geometry"/>
                </mxCell>
                <mxCell id="41" style="edgeStyle=none;html=1;exitX=1;exitY=0.5;exitDx=0;exitDy=0;entryX=0;entryY=0.5;entryDx=0;entryDy=0;fillColor=#e3c800;strokeColor=#B09500;strokeWidth=7;" edge="1" parent="1" source="34" target="39">
                    <mxGeometry relative="1" as="geometry">
                        <mxPoint x="780" y="280" as="sourcePoint"/>
                        <mxPoint x="690" y="340" as="targetPoint"/>
                    </mxGeometry>
                </mxCell>
                <mxCell id="44" style="edgeStyle=none;html=1;exitX=1;exitY=0.5;exitDx=0;exitDy=0;entryX=0;entryY=0.5;entryDx=0;entryDy=0;fillColor=#e3c800;strokeColor=#B09500;strokeWidth=7;" edge="1" parent="1" source="34" target="42">
                    <mxGeometry relative="1" as="geometry">
                        <mxPoint x="660" y="400" as="sourcePoint"/>
                        <mxPoint x="712.5" y="500" as="targetPoint"/>
                    </mxGeometry>
                </mxCell>
                <mxCell id="46" value="Loop" style="rounded=1;whiteSpace=wrap;html=1;fontSize=24;fillColor=#1ba1e2;fontColor=#ffffff;strokeColor=#006EAF;" vertex="1" parent="1">
                    <mxGeometry x="1100" y="290" width="120" height="60" as="geometry"/>
                </mxCell>
                <mxCell id="47" value="Loop 2" style="rounded=1;whiteSpace=wrap;html=1;fontSize=24;fillColor=#1ba1e2;fontColor=#ffffff;strokeColor=#006EAF;" vertex="1" parent="1">
                    <mxGeometry x="1260" y="290" width="120" height="60" as="geometry"/>
                </mxCell>
                <mxCell id="48" style="edgeStyle=none;html=1;exitX=1;exitY=0.5;exitDx=0;exitDy=0;entryX=0;entryY=0.5;entryDx=0;entryDy=0;fillColor=#60a917;strokeColor=#2D7600;strokeWidth=7;" edge="1" parent="1" source="39" target="46">
                    <mxGeometry relative="1" as="geometry">
                        <mxPoint x="720" y="370" as="sourcePoint"/>
                        <mxPoint x="890" y="330" as="targetPoint"/>
                    </mxGeometry>
                </mxCell>
                <mxCell id="49" style="edgeStyle=none;html=1;exitX=1;exitY=0.5;exitDx=0;exitDy=0;entryX=0;entryY=0.5;entryDx=0;entryDy=0;fillColor=#60a917;strokeColor=#2D7600;strokeWidth=7;" edge="1" parent="1" source="30" target="46">
                    <mxGeometry relative="1" as="geometry">
                        <mxPoint x="1060" y="330" as="sourcePoint"/>
                        <mxPoint x="1110" y="330" as="targetPoint"/>
                    </mxGeometry>
                </mxCell>
                <mxCell id="50" style="edgeStyle=none;html=1;exitX=1;exitY=0.5;exitDx=0;exitDy=0;entryX=0;entryY=0.5;entryDx=0;entryDy=0;fillColor=#60a917;strokeColor=#2D7600;strokeWidth=7;" edge="1" parent="1" source="42" target="46">
                    <mxGeometry relative="1" as="geometry">
                        <mxPoint x="1060" y="250" as="sourcePoint"/>
                        <mxPoint x="1110" y="330" as="targetPoint"/>
                    </mxGeometry>
                </mxCell>
                <mxCell id="51" style="edgeStyle=none;html=1;exitX=1;exitY=0.5;exitDx=0;exitDy=0;entryX=0;entryY=0.5;entryDx=0;entryDy=0;fillColor=#60a917;strokeColor=#2D7600;strokeWidth=7;" edge="1" parent="1" source="46" target="47">
                    <mxGeometry relative="1" as="geometry">
                        <mxPoint x="1060" y="330" as="sourcePoint"/>
                        <mxPoint x="1110" y="330" as="targetPoint"/>
                    </mxGeometry>
                </mxCell>
                <mxCell id="55" style="edgeStyle=none;html=1;exitX=0.5;exitY=1;exitDx=0;exitDy=0;entryX=0.5;entryY=0;entryDx=0;entryDy=0;fillColor=#f0a30a;strokeColor=#BD7000;strokeWidth=7;" edge="1" parent="1" source="46" target="52">
                    <mxGeometry relative="1" as="geometry">
                        <mxPoint x="1170" y="360" as="sourcePoint"/>
                        <mxPoint x="1140" y="560" as="targetPoint"/>
                    </mxGeometry>
                </mxCell>
                <mxCell id="57" style="edgeStyle=none;html=1;exitX=0.5;exitY=1;exitDx=0;exitDy=0;entryX=0.45;entryY=0.033;entryDx=0;entryDy=0;fillColor=#f0a30a;strokeColor=#BD7000;strokeWidth=7;entryPerimeter=0;" edge="1" parent="1" source="47" target="53">
                    <mxGeometry relative="1" as="geometry">
                        <mxPoint x="1330" y="360" as="sourcePoint"/>
                        <mxPoint x="950" y="560" as="targetPoint"/>
                    </mxGeometry>
                </mxCell>
                <mxCell id="58" style="edgeStyle=none;html=1;exitX=0;exitY=0.5;exitDx=0;exitDy=0;entryX=0.5;entryY=1;entryDx=0;entryDy=0;fillColor=#f0a30a;strokeColor=#BD7000;strokeWidth=7;" edge="1" parent="1" source="52" target="26">
                    <mxGeometry relative="1" as="geometry">
                        <mxPoint x="1170" y="360" as="sourcePoint"/>
                        <mxPoint x="950" y="560" as="targetPoint"/>
                    </mxGeometry>
                </mxCell>
                <mxCell id="59" style="edgeStyle=none;html=1;exitX=0;exitY=0.5;exitDx=0;exitDy=0;entryX=0.5;entryY=1;entryDx=0;entryDy=0;fillColor=#f0a30a;strokeColor=#BD7000;strokeWidth=7;" edge="1" parent="1" source="53" target="26">
                    <mxGeometry relative="1" as="geometry">
                        <mxPoint x="890" y="590" as="sourcePoint"/>
                        <mxPoint x="780" y="280" as="targetPoint"/>
                    </mxGeometry>
                </mxCell>
                <mxCell id="60" style="edgeStyle=none;html=1;entryX=0.5;entryY=1;entryDx=0;entryDy=0;fillColor=#f0a30a;strokeColor=#BD7000;strokeWidth=7;exitX=0;exitY=0.5;exitDx=0;exitDy=0;" edge="1" parent="1" source="52" target="34">
                    <mxGeometry relative="1" as="geometry">
                        <mxPoint x="860" y="590" as="sourcePoint"/>
                        <mxPoint x="780" y="280" as="targetPoint"/>
                    </mxGeometry>
                </mxCell>
                <mxCell id="61" style="edgeStyle=none;html=1;exitX=0;exitY=0.5;exitDx=0;exitDy=0;entryX=0.5;entryY=1;entryDx=0;entryDy=0;fillColor=#f0a30a;strokeColor=#BD7000;strokeWidth=7;" edge="1" parent="1" source="53" target="34">
                    <mxGeometry relative="1" as="geometry">
                        <mxPoint x="1080" y="590" as="sourcePoint"/>
                        <mxPoint x="780" y="280" as="targetPoint"/>
                    </mxGeometry>
                </mxCell>
                <mxCell id="30" value="StandJump" style="rounded=1;whiteSpace=wrap;html=1;fontSize=24;fillColor=#1ba1e2;fontColor=#ffffff;strokeColor=#006EAF;" parent="1" vertex="1">
                    <mxGeometry x="880" y="210" width="170" height="60" as="geometry"/>
                </mxCell>
                <mxCell id="39" value="RunJumpLeft" style="rounded=1;whiteSpace=wrap;html=1;fontSize=24;fillColor=#1ba1e2;fontColor=#ffffff;strokeColor=#006EAF;" vertex="1" parent="1">
                    <mxGeometry x="880" y="290" width="170" height="60" as="geometry"/>
                </mxCell>
                <mxCell id="42" value="RunJumpRight" style="rounded=1;whiteSpace=wrap;html=1;fontSize=24;fillColor=#1ba1e2;fontColor=#ffffff;strokeColor=#006EAF;" vertex="1" parent="1">
                    <mxGeometry x="880" y="370" width="170" height="60" as="geometry"/>
                </mxCell>
                <mxCell id="52" value="Land 1" style="rounded=1;whiteSpace=wrap;html=1;fontSize=24;fillColor=#1ba1e2;fontColor=#ffffff;strokeColor=#006EAF;" vertex="1" parent="1">
                    <mxGeometry x="880" y="510" width="120" height="60" as="geometry"/>
                </mxCell>
                <mxCell id="53" value="Land 2" style="rounded=1;whiteSpace=wrap;html=1;fontSize=24;fillColor=#1ba1e2;fontColor=#ffffff;strokeColor=#006EAF;" vertex="1" parent="1">
                    <mxGeometry x="1070" y="510" width="120" height="60" as="geometry"/>
                </mxCell>
            </root>
        </mxGraphModel>
    </diagram>
</mxfile>